<?xml version="1.0" encoding="utf-8"?>
<!-- Generator: Adobe Illustrator 14.0.0, SVG Export Plug-In . SVG Version: 6.00 Build 43363)  -->
<!DOCTYPE svg PUBLIC "-//W3C//DTD SVG 1.1//EN" "http://www.w3.org/Graphics/SVG/1.1/DTD/svg11.dtd">
<svg version="1.1" id="Layer_1" xmlns="http://www.w3.org/2000/svg" xmlns:xlink="http://www.w3.org/1999/xlink" x="0px" y="0px"
	 width="350px" height="60px" viewBox="0 0 350 60" enable-background="new 0 0 350 60" xml:space="preserve">
<g>
	<g>
		<polygon fill="#1553A3" points="38.537,0.991 53.491,51.029 68.326,46.525 69.271,49.688 51.276,55.145 35.374,1.936 		"/>
		<g>
			<g>
				<circle fill="#1553A3" cx="19.064" cy="17.561" r="2.952"/>
				<path fill="#1553A3" d="M0,34.578v16.439c0,0,1.287,3.965,5.781,3.896c-0.137-0.604-0.211-1.227-0.211-1.871
					c0-4.648,3.767-8.416,8.414-8.416c4.648,0,8.416,3.768,8.416,8.416c0,0.627-0.071,1.236-0.2,1.822
					c2.485,0.004,5.051,0.006,7.552,0.008c-0.021-0.215-0.033-0.438-0.033-0.658c0-4,3.243-7.244,7.243-7.244
					c4.001,0,7.244,3.244,7.244,7.244c0,0.232-0.013,0.461-0.035,0.689c1.996,0.006,3.203,0.01,3.203,0.01l-9.842-33.748
					c0,0-2.596-10.599-11.357-11.031H10.491v24.443H0z M24.521,34.781h2.5v5.938h-2.5V34.781z M13.5,12.975h13.521
					c4.767,0.156,7.112,6.175,7.112,6.175l1.797,5.862l-4.229,3.907c0,0-0.943,0.941-0.217,1.997c0.726,1.056,2.18,0.113,2.18,0.113
					l3.298-2.97l3.424,12.27h-9.535c0,0,0-6.643,0-7.805c0-1.16-1.72-1.574-1.72-1.574h-6.173v-3.36
					c0.312,0.938,1.563,1.487,1.563,1.487h5.198c0,0,0.924-0.59,0.924-1.851c0-1.259-0.924-1.745-0.924-1.745l-3.949-0.155
					l-4.924-3.44c-4.063-0.156-4.735,2.815-4.735,2.815s0,5.625,0,7.189c0,1.563,1.375,2.5,1.375,2.5H13.5V12.975z"/>
				<path fill="#1553A3" d="M32.459,54.135c0,2.455,1.99,4.445,4.447,4.445c2.455,0,4.445-1.99,4.445-4.445
					c0-2.457-1.99-4.447-4.445-4.447C34.45,49.688,32.459,51.678,32.459,54.135z M34.221,54.135c0-1.48,1.204-2.686,2.685-2.686
					c1.479,0,2.684,1.205,2.684,2.686c0,1.479-1.205,2.682-2.684,2.682C35.425,56.816,34.221,55.613,34.221,54.135z"/>
				<path fill="#1553A3" d="M8.373,53.043c0,3.098,2.513,5.611,5.612,5.611c3.1,0,5.611-2.514,5.611-5.611
					c0-3.1-2.512-5.613-5.611-5.613C10.886,47.43,8.373,49.943,8.373,53.043z M10.134,53.043c0-2.123,1.727-3.85,3.851-3.85
					s3.85,1.727,3.85,3.85s-1.727,3.85-3.85,3.85S10.134,55.166,10.134,53.043z"/>
			</g>
		</g>
		
			<rect x="52.353" y="33.645" transform="matrix(-0.9584 0.2855 -0.2855 -0.9584 130.5766 61.401)" fill="#00AA7D" width="16.921" height="13.143"/>
		
			<rect x="48.577" y="22.52" transform="matrix(-0.9583 0.2856 -0.2856 -0.9583 116.2068 38.4814)" fill="#00AA7D" width="13.44" height="10.39"/>
	</g>
	<g>
		<g>
			<path fill="#414042" d="M81.5,56.529v-8.885h1.417v3.691h4.857v-3.691h1.38v8.885h-1.38v-4.021h-4.857v4.021H81.5z"/>
			<path fill="#414042" d="M98.197,56.529h-6.445v-8.885h6.177v1.105h-4.759v2.701h4.38v1.082h-4.38v2.9h5.027V56.529z"/>
			<path fill="#414042" d="M104.075,47.645l3.335,8.885h-1.423l-0.904-2.5h-3.653l-0.923,2.5h-1.435l3.354-8.885H104.075z
				 M103.257,48.715l-1.516,4.246h3.012L103.257,48.715z"/>
			<path fill="#414042" d="M111.096,56.529l-3.293-8.885h1.466l2.572,7.752l2.53-7.752h1.472l-3.306,8.885H111.096z"/>
			<path fill="#414042" d="M120.108,51.744l2.37-4.1h1.491l-3.171,5.23v3.654h-1.393v-3.654l-3.152-5.23h1.503L120.108,51.744z"/>
			<path fill="#414042" d="M135.493,56.529h-6.445v-8.885h6.176v1.105h-4.759v2.701h4.38v1.082h-4.38v2.9h5.028V56.529z"/>
			<path fill="#414042" d="M145.77,52.043c0,0.615-0.077,1.182-0.229,1.695c-0.152,0.518-0.375,0.967-0.666,1.355
				c-0.292,0.385-0.646,0.703-1.066,0.951c-0.419,0.25-0.896,0.414-1.429,0.496c0.081,0.26,0.177,0.482,0.287,0.666
				c0.11,0.182,0.236,0.332,0.376,0.445c0.14,0.113,0.297,0.197,0.471,0.25c0.172,0.055,0.361,0.08,0.564,0.08
				c0.118,0,0.247-0.008,0.388-0.027c0.14-0.02,0.259-0.041,0.357-0.064v0.959c-0.179,0.049-0.373,0.088-0.583,0.115
				c-0.209,0.029-0.433,0.045-0.668,0.045c-0.371,0-0.695-0.057-0.971-0.168c-0.278-0.113-0.52-0.273-0.727-0.48
				c-0.208-0.207-0.387-0.459-0.538-0.754c-0.15-0.297-0.283-0.627-0.396-0.994c-0.64-0.039-1.2-0.182-1.681-0.424
				c-0.481-0.242-0.883-0.566-1.207-0.969s-0.567-0.875-0.73-1.414s-0.244-1.129-0.244-1.764c0-0.691,0.096-1.316,0.287-1.875
				c0.191-0.557,0.473-1.031,0.844-1.424c0.37-0.391,0.826-0.691,1.368-0.904c0.542-0.211,1.161-0.318,1.857-0.318
				c0.696,0,1.314,0.109,1.854,0.322c0.54,0.215,0.993,0.518,1.359,0.91c0.367,0.393,0.646,0.869,0.837,1.424
				C145.674,50.732,145.77,51.355,145.77,52.043z M144.34,52.043c0-0.512-0.063-0.979-0.189-1.398s-0.311-0.777-0.556-1.072
				c-0.244-0.295-0.547-0.523-0.91-0.688c-0.363-0.162-0.78-0.244-1.252-0.244c-0.489,0-0.916,0.082-1.28,0.244
				c-0.364,0.164-0.669,0.393-0.914,0.688c-0.244,0.295-0.428,0.652-0.55,1.072s-0.183,0.887-0.183,1.398
				c0,0.51,0.063,0.979,0.189,1.406c0.126,0.428,0.312,0.797,0.556,1.105c0.244,0.311,0.548,0.551,0.91,0.721
				c0.363,0.172,0.783,0.256,1.259,0.256c0.509,0,0.948-0.086,1.316-0.262c0.369-0.174,0.672-0.418,0.911-0.727
				s0.414-0.678,0.525-1.104C144.285,53.014,144.34,52.549,144.34,52.043z"/>
			<path fill="#414042" d="M155.03,54.715c-0.193,0.439-0.46,0.803-0.801,1.09c-0.34,0.287-0.742,0.5-1.206,0.637
				c-0.465,0.141-0.967,0.209-1.509,0.209c-0.521,0-1.002-0.064-1.441-0.197c-0.44-0.129-0.822-0.33-1.146-0.607
				c-0.324-0.273-0.577-0.625-0.758-1.051c-0.18-0.424-0.271-0.93-0.271-1.518v-5.633h1.417v5.506c0,0.42,0.058,0.779,0.171,1.082
				c0.114,0.299,0.272,0.547,0.473,0.738c0.202,0.191,0.44,0.332,0.715,0.424s0.572,0.137,0.889,0.137s0.619-0.047,0.904-0.143
				c0.285-0.096,0.535-0.244,0.751-0.445c0.216-0.201,0.387-0.457,0.513-0.768c0.126-0.309,0.19-0.676,0.19-1.1v-5.432h1.399v5.506
				C155.32,53.752,155.224,54.273,155.03,54.715z"/>
			<path fill="#414042" d="M159.316,56.529h-1.417v-8.885h1.417V56.529z"/>
			<path fill="#414042" d="M168.536,50.34c0,0.375-0.063,0.73-0.189,1.068c-0.126,0.338-0.318,0.635-0.574,0.889
				c-0.257,0.256-0.581,0.457-0.972,0.605c-0.392,0.148-0.852,0.223-1.381,0.223h-2.065v3.404h-1.417v-8.885h3.403
				c0.541,0,1.012,0.066,1.411,0.195c0.399,0.131,0.731,0.314,0.996,0.547c0.265,0.236,0.462,0.518,0.593,0.85
				S168.536,49.938,168.536,50.34z M167.106,50.352c0-0.529-0.16-0.941-0.482-1.234c-0.322-0.293-0.806-0.439-1.454-0.439h-1.815
				v3.426h1.875c0.326,0,0.607-0.043,0.843-0.129c0.236-0.088,0.431-0.209,0.583-0.365c0.152-0.154,0.266-0.34,0.339-0.553
				C167.07,50.842,167.106,50.607,167.106,50.352z"/>
			<path fill="#414042" d="M170.596,47.645h1.881l2.553,6.141c0.135,0.305,0.268,0.67,0.397,1.094
				c0.146-0.439,0.287-0.822,0.422-1.148l2.488-6.086h1.861v8.885h-1.26v-5.787c0-0.504,0.014-1.088,0.039-1.752
				c-0.184,0.512-0.406,1.107-0.674,1.783l-2.339,5.756h-1.081l-2.511-6.072c-0.175-0.434-0.359-0.922-0.55-1.467
				c0.025,0.711,0.037,1.293,0.037,1.74v5.799h-1.265V47.645z"/>
			<path fill="#414042" d="M189.273,56.529h-6.445v-8.885h6.178v1.105h-4.76v2.701h4.379v1.082h-4.379v2.9h5.027V56.529z"/>
			<path fill="#414042" d="M197.588,56.529l-5.057-7.307c0.023,0.584,0.037,1.123,0.037,1.611v5.695h-1.266v-8.885h1.654L198.084,55
				c-0.033-0.658-0.049-1.238-0.049-1.734v-5.621h1.258v8.885H197.588z"/>
			<path fill="#414042" d="M208.318,47.645v1.131h-3.043v7.754h-1.404v-7.754h-2.951v-1.131H208.318z"/>
			<path fill="#414042" d="M220.252,54.047c0,0.381-0.072,0.729-0.211,1.049c-0.141,0.318-0.357,0.596-0.654,0.824
				c-0.295,0.23-0.67,0.41-1.123,0.537c-0.455,0.129-0.992,0.193-1.615,0.193c-1.096,0-1.943-0.197-2.547-0.59
				c-0.6-0.393-0.986-0.961-1.156-1.707l1.355-0.27c0.055,0.221,0.135,0.42,0.244,0.604c0.111,0.18,0.26,0.336,0.451,0.469
				c0.188,0.133,0.422,0.234,0.697,0.307c0.277,0.07,0.609,0.105,0.998,0.105c0.33,0,0.629-0.027,0.896-0.086
				c0.268-0.057,0.498-0.145,0.691-0.262c0.191-0.117,0.338-0.27,0.441-0.453c0.105-0.184,0.156-0.402,0.156-0.66
				c0-0.283-0.072-0.516-0.217-0.695c-0.145-0.178-0.336-0.326-0.574-0.441c-0.238-0.117-0.508-0.213-0.813-0.289
				c-0.303-0.074-0.611-0.15-0.926-0.229c-0.238-0.057-0.48-0.115-0.721-0.178c-0.24-0.061-0.473-0.135-0.693-0.223
				s-0.428-0.189-0.621-0.309c-0.189-0.117-0.355-0.262-0.496-0.434c-0.141-0.17-0.252-0.369-0.334-0.598s-0.121-0.496-0.121-0.801
				c0-0.424,0.082-0.787,0.25-1.088s0.398-0.549,0.695-0.742c0.299-0.193,0.648-0.334,1.055-0.424
				c0.404-0.09,0.844-0.137,1.318-0.137c0.539,0,1.002,0.045,1.385,0.133s0.705,0.219,0.967,0.395
				c0.26,0.176,0.469,0.393,0.629,0.652c0.158,0.262,0.285,0.564,0.377,0.912l-1.375,0.207c-0.049-0.213-0.123-0.396-0.225-0.553
				s-0.232-0.289-0.395-0.395c-0.16-0.105-0.355-0.186-0.586-0.238s-0.5-0.08-0.809-0.08c-0.363,0-0.668,0.035-0.912,0.102
				s-0.439,0.16-0.59,0.277c-0.146,0.119-0.254,0.256-0.316,0.412c-0.063,0.158-0.094,0.326-0.094,0.506
				c0,0.248,0.059,0.451,0.176,0.613c0.119,0.16,0.281,0.295,0.482,0.404c0.205,0.107,0.443,0.199,0.717,0.273
				c0.27,0.074,0.566,0.152,0.879,0.23c0.26,0.061,0.523,0.123,0.787,0.188c0.264,0.066,0.518,0.143,0.758,0.23
				c0.24,0.086,0.467,0.191,0.674,0.313c0.211,0.123,0.395,0.275,0.547,0.453c0.156,0.18,0.277,0.391,0.363,0.633
				C220.209,53.432,220.252,53.719,220.252,54.047z"/>
			<path fill="#414042" d="M229,50.34c0,0.375-0.063,0.73-0.188,1.068c-0.127,0.338-0.32,0.635-0.574,0.889
				c-0.258,0.256-0.582,0.457-0.971,0.605c-0.393,0.148-0.854,0.223-1.381,0.223h-2.066v3.404h-1.418v-8.885h3.402
				c0.543,0,1.014,0.066,1.412,0.195c0.398,0.131,0.732,0.314,0.998,0.547c0.262,0.236,0.461,0.518,0.592,0.85
				C228.936,49.568,229,49.938,229,50.34z M227.57,50.352c0-0.529-0.16-0.941-0.48-1.234c-0.324-0.293-0.807-0.439-1.455-0.439
				h-1.814v3.426h1.877c0.324,0,0.605-0.043,0.842-0.129c0.236-0.088,0.43-0.209,0.584-0.365c0.154-0.154,0.266-0.34,0.338-0.553
				C227.535,50.842,227.57,50.607,227.57,50.352z"/>
			<path fill="#414042" d="M234.91,47.645l3.336,8.885h-1.424l-0.904-2.5h-3.652l-0.924,2.5h-1.436l3.354-8.885H234.91z
				 M234.092,48.715l-1.516,4.246h3.012L234.092,48.715z"/>
			<path fill="#414042" d="M246.328,50.229c0,0.287-0.041,0.561-0.123,0.828c-0.084,0.268-0.213,0.512-0.385,0.734
				c-0.174,0.221-0.393,0.414-0.658,0.578c-0.266,0.162-0.576,0.281-0.941,0.359l2.482,3.801h-1.602l-2.242-3.654h-1.711v3.654
				h-1.418v-8.885h3.391c0.521,0,0.98,0.061,1.381,0.182c0.398,0.119,0.736,0.291,1.004,0.512c0.271,0.223,0.477,0.494,0.617,0.813
				C246.26,49.471,246.328,49.83,246.328,50.229z M244.898,50.242c0-0.51-0.166-0.898-0.498-1.164c-0.336-0.268-0.801-0.4-1.4-0.4
				h-1.852v3.178h1.9c0.322,0,0.6-0.043,0.834-0.127s0.426-0.197,0.578-0.342c0.15-0.145,0.262-0.314,0.332-0.51
				S244.898,50.471,244.898,50.242z"/>
			<path fill="#414042" d="M254.994,56.529h-6.447v-8.885h6.176v1.105h-4.758v2.701h4.381v1.082h-4.381v2.9h5.029V56.529z"/>
			<path fill="#414042" d="M267.195,50.34c0,0.375-0.063,0.73-0.189,1.068c-0.125,0.338-0.318,0.635-0.574,0.889
				c-0.258,0.256-0.58,0.457-0.971,0.605c-0.393,0.148-0.852,0.223-1.381,0.223h-2.064v3.404h-1.418v-8.885H264
				c0.543,0,1.012,0.066,1.412,0.195c0.398,0.131,0.73,0.314,0.996,0.547c0.264,0.236,0.463,0.518,0.592,0.85
				C267.131,49.568,267.195,49.938,267.195,50.34z M265.766,50.352c0-0.529-0.162-0.941-0.482-1.234
				c-0.322-0.293-0.807-0.439-1.455-0.439h-1.813v3.426h1.875c0.324,0,0.605-0.043,0.842-0.129c0.236-0.088,0.432-0.209,0.584-0.365
				c0.154-0.154,0.266-0.34,0.338-0.553C265.73,50.842,265.766,50.607,265.766,50.352z"/>
			<path fill="#414042" d="M273.104,47.645l3.338,8.885h-1.424l-0.904-2.5h-3.654l-0.922,2.5h-1.436l3.354-8.885H273.104z
				 M272.287,48.715l-1.518,4.246h3.014L272.287,48.715z"/>
			<path fill="#414042" d="M284.523,50.229c0,0.287-0.041,0.561-0.123,0.828c-0.086,0.268-0.213,0.512-0.387,0.734
				c-0.174,0.221-0.391,0.414-0.656,0.578c-0.266,0.162-0.578,0.281-0.943,0.359l2.482,3.801h-1.6l-2.242-3.654h-1.711v3.654h-1.418
				v-8.885h3.391c0.521,0,0.98,0.061,1.381,0.182c0.398,0.119,0.734,0.291,1.004,0.512c0.271,0.223,0.477,0.494,0.615,0.813
				C284.455,49.471,284.523,49.83,284.523,50.229z M283.094,50.242c0-0.51-0.168-0.898-0.5-1.164c-0.334-0.268-0.801-0.4-1.398-0.4
				h-1.852v3.178h1.9c0.32,0,0.6-0.043,0.834-0.127c0.232-0.084,0.426-0.197,0.578-0.342c0.148-0.145,0.26-0.314,0.33-0.51
				C283.059,50.682,283.094,50.471,283.094,50.242z"/>
			<path fill="#414042" d="M293.15,47.645v1.131h-3.043v7.754h-1.402v-7.754h-2.953v-1.131H293.15z"/>
			<path fill="#414042" d="M301.51,54.047c0,0.381-0.07,0.729-0.211,1.049c-0.143,0.318-0.357,0.596-0.654,0.824
				c-0.295,0.23-0.668,0.41-1.123,0.537c-0.455,0.129-0.992,0.193-1.617,0.193c-1.094,0-1.943-0.197-2.543-0.59
				s-0.988-0.961-1.16-1.707l1.357-0.27c0.053,0.221,0.135,0.42,0.244,0.604c0.109,0.18,0.26,0.336,0.451,0.469
				c0.188,0.133,0.422,0.234,0.697,0.307c0.277,0.07,0.609,0.105,0.996,0.105c0.332,0,0.631-0.027,0.896-0.086
				c0.271-0.057,0.5-0.145,0.693-0.262c0.191-0.117,0.338-0.27,0.443-0.453c0.104-0.184,0.154-0.402,0.154-0.66
				c0-0.283-0.072-0.516-0.217-0.695c-0.145-0.178-0.336-0.326-0.574-0.441c-0.236-0.117-0.51-0.213-0.813-0.289
				c-0.305-0.074-0.613-0.15-0.926-0.229c-0.24-0.057-0.48-0.115-0.721-0.178c-0.24-0.061-0.473-0.135-0.691-0.223
				c-0.223-0.088-0.43-0.189-0.623-0.309c-0.189-0.117-0.355-0.262-0.498-0.434c-0.139-0.17-0.25-0.369-0.33-0.598
				c-0.084-0.229-0.123-0.496-0.123-0.801c0-0.424,0.082-0.787,0.25-1.088c0.166-0.301,0.398-0.549,0.695-0.742
				s0.65-0.334,1.055-0.424s0.844-0.137,1.316-0.137c0.543,0,1.004,0.045,1.387,0.133c0.381,0.088,0.705,0.219,0.965,0.395
				s0.471,0.393,0.631,0.652c0.156,0.262,0.285,0.564,0.377,0.912l-1.375,0.207c-0.049-0.213-0.123-0.396-0.227-0.553
				c-0.1-0.156-0.23-0.289-0.393-0.395c-0.16-0.105-0.355-0.186-0.586-0.238c-0.229-0.053-0.502-0.08-0.811-0.08
				c-0.361,0-0.666,0.035-0.91,0.102s-0.441,0.16-0.59,0.277c-0.146,0.119-0.254,0.256-0.316,0.412
				c-0.063,0.158-0.094,0.326-0.094,0.506c0,0.248,0.059,0.451,0.176,0.613c0.119,0.16,0.279,0.295,0.482,0.404
				c0.205,0.107,0.443,0.199,0.715,0.273c0.273,0.074,0.566,0.152,0.879,0.23c0.264,0.061,0.523,0.123,0.789,0.188
				c0.264,0.066,0.518,0.143,0.758,0.23c0.24,0.086,0.465,0.191,0.674,0.313c0.211,0.123,0.395,0.275,0.547,0.453
				c0.154,0.18,0.277,0.391,0.363,0.633C301.467,53.432,301.51,53.719,301.51,54.047z"/>
			<path fill="#414042" d="M313.645,47.645v1.131h-3.043v7.754h-1.406v-7.754h-2.949v-1.131H313.645z"/>
			<path fill="#414042" d="M321.844,50.229c0,0.287-0.041,0.561-0.125,0.828c-0.082,0.268-0.213,0.512-0.387,0.734
				c-0.172,0.221-0.391,0.414-0.656,0.578c-0.264,0.162-0.578,0.281-0.939,0.359l2.48,3.801h-1.602l-2.242-3.654h-1.711v3.654
				h-1.418v-8.885h3.393c0.521,0,0.982,0.061,1.381,0.182c0.398,0.119,0.732,0.291,1.006,0.512c0.27,0.223,0.475,0.494,0.613,0.813
				C321.775,49.471,321.844,49.83,321.844,50.229z M320.414,50.242c0-0.51-0.166-0.898-0.502-1.164
				c-0.332-0.268-0.799-0.4-1.396-0.4h-1.854v3.178h1.9c0.322,0,0.6-0.043,0.836-0.127c0.234-0.084,0.424-0.197,0.576-0.342
				s0.262-0.314,0.332-0.51C320.379,50.682,320.414,50.471,320.414,50.242z"/>
			<path fill="#414042" d="M329.055,47.645v7.766h4.174v1.119h-5.59v-8.885H329.055z"/>
			<path fill="#414042" d="M336.484,47.645v7.766h4.174v1.119h-5.592v-8.885H336.484z"/>
			<path fill="#414042" d="M346.297,56.65c-0.719,0-1.346-0.113-1.881-0.342c-0.533-0.229-0.977-0.547-1.326-0.957
				c-0.35-0.408-0.609-0.895-0.781-1.457c-0.17-0.563-0.256-1.18-0.256-1.852c0-0.691,0.086-1.316,0.256-1.875
				c0.172-0.557,0.43-1.031,0.773-1.424c0.344-0.391,0.777-0.691,1.299-0.904c0.52-0.211,1.131-0.318,1.832-0.318
				c0.537,0,1.004,0.064,1.398,0.188c0.395,0.125,0.734,0.289,1.02,0.496c0.285,0.205,0.525,0.441,0.723,0.707
				c0.195,0.268,0.359,0.547,0.492,0.834l-1.258,0.459c-0.084-0.188-0.193-0.375-0.322-0.563c-0.131-0.186-0.289-0.355-0.479-0.504
				c-0.188-0.148-0.408-0.27-0.664-0.359c-0.258-0.092-0.553-0.139-0.887-0.139c-0.484,0-0.9,0.082-1.248,0.244
				c-0.35,0.164-0.635,0.393-0.855,0.688c-0.223,0.295-0.387,0.652-0.492,1.072s-0.158,0.887-0.158,1.398
				c0,0.51,0.059,0.979,0.174,1.406s0.291,0.797,0.525,1.105c0.234,0.311,0.527,0.551,0.879,0.721
				c0.352,0.172,0.766,0.256,1.236,0.256c0.342,0,0.646-0.055,0.912-0.164c0.264-0.109,0.496-0.25,0.695-0.422
				c0.199-0.17,0.369-0.361,0.51-0.57c0.141-0.211,0.258-0.418,0.346-0.621l1.24,0.514c-0.146,0.297-0.32,0.59-0.523,0.875
				c-0.199,0.283-0.447,0.539-0.736,0.762c-0.293,0.225-0.639,0.404-1.037,0.541S346.836,56.65,346.297,56.65z"/>
		</g>
	</g>
	<g>
		<path fill="#1553A3" d="M96.487,17.145c-1.088-0.529-2.036-0.899-2.844-1.108c-0.81-0.209-1.659-0.313-2.552-0.313
			c-1.171,0-2.126,0.298-2.865,0.896c-0.739,0.597-1.108,1.368-1.108,2.313c0,0.833,0.258,1.466,0.776,1.897
			c0.518,0.431,1.49,0.826,2.917,1.187c0.951,0.25,1.741,0.472,2.371,0.667c0.629,0.195,1.168,0.396,1.617,0.604
			c0.447,0.208,0.825,0.444,1.133,0.708c0.308,0.264,0.615,0.578,0.923,0.938c1.315,1.528,1.973,3.376,1.973,5.542
			c0,1.306-0.237,2.501-0.711,3.585c-0.474,1.082-1.136,2.014-1.987,2.791c-0.851,0.779-1.882,1.377-3.095,1.793
			c-1.213,0.416-2.545,0.625-3.994,0.625c-1.06,0-2.133-0.105-3.221-0.316c-1.086-0.211-2.384-0.555-3.889-1.033v-5.971
			c1.589,0.67,2.927,1.145,4.015,1.424c1.087,0.279,2.146,0.418,3.178,0.418c1.199,0,2.154-0.293,2.866-0.877
			c0.71-0.584,1.066-1.363,1.066-2.338c0-1.113-0.53-1.934-1.589-2.462c-0.224-0.112-0.544-0.223-0.962-0.334
			c-0.417-0.111-1.045-0.279-1.882-0.501c-1.588-0.389-2.851-0.883-3.785-1.482c-0.935-0.598-1.68-1.384-2.237-2.358
			c-0.753-1.28-1.129-2.699-1.129-4.258c0-1.531,0.373-2.978,1.121-4.342c0.748-1.364,1.743-2.435,2.989-3.214
			c1.331-0.835,3.139-1.253,5.425-1.253c0.948,0,1.833,0.064,2.656,0.192c0.822,0.127,1.763,0.346,2.823,0.658V17.145z"/>
		<path fill="#1553A3" d="M116.145,38.768l-1.422-5.438h-7.486l-1.422,5.438h-5.98l6.775-24.299
			c0.781-2.732,2.245-4.099,4.392-4.099c2.119,0,3.583,1.38,4.391,4.141l6.901,24.257H116.145z M110.958,18.567l-2.384,9.41h4.81
			L110.958,18.567z"/>
		<path fill="#1553A3" d="M145.461,38.768h-5.646V27.015h-8.825v11.752h-5.646V10.872h5.646v10.791h8.825V10.872h5.646V38.768z"/>
		<path fill="#1553A3" d="M164.908,38.768l-1.422-5.438H156l-1.421,5.438h-5.981l6.775-24.299c0.781-2.732,2.245-4.099,4.392-4.099
			c2.118,0,3.582,1.38,4.391,4.141l6.9,24.257H164.908z M159.722,18.567l-2.384,9.41h4.81L159.722,18.567z"/>
		<path fill="#1553A3" d="M186.613,16.351h-5.27v22.417h-5.646V16.351h-5.228v-5.479h16.143V16.351z"/>
		<path fill="#00AA7D" d="M214.258,38.768l-1.422-5.438h-7.486l-1.422,5.438h-5.98l6.775-24.299
			c0.781-2.732,2.244-4.099,4.391-4.099c2.117,0,3.584,1.38,4.391,4.141l6.902,24.257H214.258z M209.072,18.567l-2.385,9.41h4.811
			L209.072,18.567z"/>
		<path fill="#00AA7D" d="M229.02,38.768c-2.074,0-3.543-0.445-4.4-1.338s-1.285-2.412-1.285-4.561V10.872h5.645v22.417h8.156v5.479
			H229.02z"/>
		<path fill="#1553A3" d="M264.361,17.145c-1.088-0.529-2.035-0.899-2.846-1.108c-0.809-0.209-1.658-0.313-2.551-0.313
			c-1.17,0-2.125,0.298-2.865,0.896c-0.738,0.597-1.105,1.368-1.105,2.313c0,0.833,0.256,1.466,0.773,1.897
			c0.52,0.431,1.492,0.826,2.918,1.187c0.953,0.25,1.742,0.472,2.373,0.667c0.629,0.195,1.166,0.396,1.615,0.604
			c0.447,0.208,0.824,0.444,1.133,0.708c0.307,0.264,0.615,0.578,0.922,0.938c1.316,1.528,1.975,3.376,1.975,5.542
			c0,1.306-0.238,2.501-0.711,3.585c-0.475,1.082-1.137,2.014-1.986,2.791c-0.852,0.779-1.883,1.377-3.096,1.793
			s-2.545,0.625-3.994,0.625c-1.059,0-2.133-0.105-3.221-0.316s-2.383-0.555-3.889-1.033v-5.971c1.59,0.67,2.928,1.145,4.014,1.424
			c1.088,0.279,2.148,0.418,3.18,0.418c1.199,0,2.154-0.293,2.863-0.877c0.713-0.584,1.068-1.363,1.068-2.338
			c0-1.113-0.531-1.934-1.588-2.462c-0.225-0.112-0.545-0.223-0.965-0.334c-0.416-0.111-1.043-0.279-1.881-0.501
			c-1.59-0.389-2.852-0.883-3.783-1.482c-0.938-0.598-1.682-1.384-2.238-2.358c-0.754-1.28-1.131-2.699-1.131-4.258
			c0-1.531,0.373-2.978,1.121-4.342c0.75-1.364,1.744-2.435,2.988-3.214c1.332-0.835,3.141-1.253,5.428-1.253
			c0.945,0,1.832,0.064,2.654,0.192c0.822,0.127,1.764,0.346,2.824,0.658V17.145z"/>
		<path fill="#1553A3" d="M284.018,38.768l-1.422-5.438h-7.486l-1.422,5.438h-5.98l6.775-24.299
			c0.781-2.732,2.244-4.099,4.391-4.099c2.119,0,3.584,1.38,4.391,4.141l6.902,24.257H284.018z M278.832,18.567l-2.385,9.41h4.811
			L278.832,18.567z"/>
		<path fill="#1553A3" d="M301.707,28.73c0,0.809-0.027,1.526-0.082,2.154c-0.055,0.627-0.139,1.19-0.25,1.694
			c-0.109,0.502-0.264,0.969-0.455,1.4c-0.195,0.434-0.43,0.857-0.707,1.275c-1.631,2.342-4.314,3.514-8.041,3.514
			c-0.139,0-0.361,0-0.668,0c-0.279,0-0.586,0-0.92,0v-5.186h0.752c0.92,0,1.686-0.07,2.299-0.209
			c0.615-0.141,1.098-0.385,1.443-0.734c0.35-0.35,0.602-0.811,0.754-1.383c0.154-0.572,0.23-1.306,0.23-2.2V10.872h5.645V28.73z"/>
		<path fill="#1553A3" d="M320.402,38.768l-1.422-5.438h-7.486l-1.422,5.438h-5.98l6.775-24.299
			c0.781-2.732,2.244-4.099,4.391-4.099c2.119,0,3.584,1.38,4.393,4.141l6.898,24.257H320.402z M315.217,18.567l-2.385,9.41h4.811
			L315.217,18.567z"/>
		<path fill="#1553A3" d="M343.697,38.768l-1.422-5.438h-7.486l-1.422,5.438h-5.982l6.777-24.299
			c0.781-2.732,2.244-4.099,4.391-4.099c2.119,0,3.584,1.38,4.391,4.141l6.9,24.257H343.697z M338.512,18.567l-2.385,9.41h4.809
			L338.512,18.567z"/>
	</g>
</g>
</svg>
